<svg xmlns="http://www.w3.org/2000/svg" xmlns:xlink="http://www.w3.org/1999/xlink" width="400" zoomAndPan="magnify" viewBox="0 0 300 299.999988" height="400" preserveAspectRatio="xMidYMid meet" version="1.0"><defs><clipPath id="b9637d1ccb"><path d="M 105 116.226562 L 143 116.226562 L 143 164 L 105 164 Z M 105 116.226562 " clip-rule="nonzero"/></clipPath><clipPath id="441edbb617"><path d="M 30 116.226562 L 270 116.226562 L 270 183.726562 L 30 183.726562 Z M 30 116.226562 " clip-rule="nonzero"/></clipPath></defs><path fill="#0057a2" d="M 69.6875 150.605469 C 69.6875 144 72.132812 140.945312 78.921875 140.945312 L 91.6875 140.945312 L 91.6875 136.144531 L 78.757812 136.144531 C 68.871094 136.144531 61.539062 139.199219 61.539062 150.386719 C 61.539062 157.589844 65.503906 162.007812 72.457031 163.265625 C 74.46875 163.644531 76.53125 163.699219 78.539062 163.699219 L 91.742188 163.699219 L 91.742188 158.898438 L 78.921875 158.898438 C 72.835938 158.84375 69.6875 157.097656 69.6875 150.605469 Z M 69.6875 150.605469 " fill-opacity="1" fill-rule="nonzero"/><path fill="#0057a2" d="M 95.816406 136.144531 L 103.3125 136.144531 L 103.3125 163.644531 L 101.300781 163.644531 C 98.53125 163.644531 95.816406 161.519531 95.816406 158.789062 Z M 95.816406 136.144531 " fill-opacity="1" fill-rule="nonzero"/><path fill="#0057a2" d="M 184.085938 141 L 184.085938 147.441406 L 205.921875 147.441406 L 205.921875 152.296875 L 184.140625 152.296875 C 184.195312 157.261719 187.128906 158.84375 191.746094 158.84375 L 205.921875 158.84375 L 205.921875 163.644531 L 191.472656 163.644531 C 182.566406 163.644531 176.863281 159.828125 176.863281 150.332031 L 176.863281 136.144531 L 205.867188 136.144531 L 205.867188 140.945312 L 184.085938 140.945312 Z M 184.085938 141 " fill-opacity="1" fill-rule="nonzero"/><path fill="#0057a2" d="M 216.734375 150.605469 C 216.734375 144 219.179688 140.945312 225.96875 140.945312 L 238.734375 140.945312 L 238.734375 136.144531 L 225.804688 136.144531 C 215.917969 136.144531 208.585938 139.199219 208.585938 150.386719 C 208.585938 157.589844 212.550781 162.007812 219.503906 163.265625 C 221.515625 163.644531 223.578125 163.699219 225.589844 163.699219 L 238.789062 163.699219 L 238.789062 158.898438 L 226.023438 158.898438 C 219.9375 158.84375 216.734375 157.097656 216.734375 150.605469 Z M 216.734375 150.605469 " fill-opacity="1" fill-rule="nonzero"/><path fill="#0057a2" d="M 177.40625 163.753906 L 166.867188 136.089844 L 158.992188 136.089844 L 152.796875 150.988281 L 146.660156 136.089844 L 138.78125 136.089844 L 128.191406 163.589844 L 135.632812 163.589844 L 142.910156 143.894531 L 149.703125 163.589844 L 155.894531 163.589844 L 162.683594 143.894531 L 169.910156 163.753906 Z M 177.40625 163.753906 " fill-opacity="1" fill-rule="nonzero"/><g clip-path="url(#b9637d1ccb)"><path fill="#76bc21" d="M 120.3125 155.84375 L 112.925781 136.144531 L 105.484375 136.144531 L 116.1875 163.644531 L 124.496094 163.644531 L 142.910156 116.226562 L 135.199219 116.390625 L 120.367188 155.84375 Z M 120.3125 155.84375 " fill-opacity="1" fill-rule="nonzero"/></g><g clip-path="url(#441edbb617)"><path fill="#0057a2" d="M 146.496094 116.226562 C 147.691406 116.226562 148.941406 116.226562 150.136719 116.226562 C 186.367188 116.226562 222.980469 118.628906 258.886719 123.429688 C 264.917969 124.304688 269.644531 129.707031 269.644531 135.707031 L 269.644531 164.191406 C 269.644531 170.25 264.917969 175.652344 258.941406 176.46875 C 222.871094 181.269531 186.152344 183.726562 149.863281 183.726562 C 113.632812 183.726562 77.019531 181.324219 41.113281 176.523438 C 35.082031 175.652344 30.359375 170.25 30.359375 164.246094 L 30.359375 135.761719 C 30.359375 129.707031 35.082031 124.304688 41.058594 123.484375 C 69.523438 119.71875 102.875 117.210938 131.613281 116.390625 L 129.003906 123.046875 C 101.355469 123.921875 69.25 126.375 41.984375 130.03125 C 39.265625 130.414062 36.984375 133.035156 36.984375 135.761719 L 36.984375 164.246094 C 36.984375 166.976562 39.265625 169.59375 42.035156 169.976562 C 77.617188 174.722656 113.902344 177.125 149.863281 177.125 C 185.878906 177.125 222.328125 174.722656 258.074219 169.976562 C 260.789062 169.59375 263.070312 166.976562 263.070312 164.246094 L 263.070312 135.707031 C 263.070312 132.980469 260.789062 130.359375 258.019531 129.976562 C 222.4375 125.230469 186.152344 122.828125 150.191406 122.828125 C 148.125 122.828125 146.0625 122.828125 143.996094 122.828125 Z M 146.496094 116.226562 " fill-opacity="1" fill-rule="nonzero"/></g></svg>