<svg xmlns="http://www.w3.org/2000/svg" xmlns:xlink="http://www.w3.org/1999/xlink" width="500" zoomAndPan="magnify" viewBox="0 0 375 374.999991" height="500" preserveAspectRatio="xMidYMid meet" version="1.0"><path fill="#5271ff" d="M 71.847656 163.269531 C 70.914062 163.273438 69.980469 163.335938 69.054688 163.449219 C 68.125 163.5625 67.207031 163.726562 66.296875 163.945312 C 65.386719 164.164062 64.492188 164.433594 63.613281 164.753906 C 62.738281 165.074219 61.878906 165.445312 61.042969 165.863281 C 60.207031 166.28125 59.398438 166.746094 58.613281 167.257812 C 57.832031 167.769531 57.082031 168.324219 56.363281 168.921875 C 55.644531 169.519531 54.960938 170.15625 54.3125 170.832031 C 53.667969 171.507812 53.0625 172.21875 52.496094 172.964844 C 51.929688 173.707031 51.410156 174.484375 50.933594 175.289062 C 50.457031 176.09375 50.027344 176.921875 49.648438 177.777344 C 49.265625 178.628906 48.933594 179.503906 48.652344 180.394531 C 48.371094 181.285156 48.140625 182.191406 47.964844 183.109375 C 47.785156 184.027344 47.660156 184.953125 47.589844 185.886719 C 47.519531 186.816406 47.5 187.75 47.535156 188.683594 C 47.570312 189.621094 47.65625 190.550781 47.800781 191.472656 C 47.941406 192.398438 48.132812 193.3125 48.378906 194.214844 C 48.625 195.117188 48.921875 196 49.269531 196.871094 C 49.617188 197.738281 50.011719 198.582031 50.457031 199.40625 C 50.902344 200.230469 51.390625 201.023438 51.925781 201.789062 C 52.460938 202.558594 53.039062 203.292969 53.65625 203.992188 C 54.277344 204.691406 54.933594 205.355469 55.628906 205.980469 C 56.324219 206.605469 57.050781 207.191406 57.8125 207.734375 C 58.574219 208.277344 59.367188 208.773438 60.183594 209.222656 C 61.003906 209.675781 61.847656 210.078125 62.710938 210.433594 C 63.574219 210.789062 64.457031 211.09375 65.359375 211.347656 C 66.257812 211.601562 67.171875 211.804688 68.09375 211.953125 C 69.015625 212.105469 69.945312 212.203125 70.878906 212.246094 C 71.8125 212.289062 72.746094 212.277344 73.679688 212.214844 C 74.613281 212.152344 75.539062 212.035156 76.457031 211.867188 C 77.378906 211.695312 78.285156 211.476562 79.179688 211.203125 C 80.074219 210.929688 80.949219 210.605469 81.808594 210.230469 C 82.664062 209.859375 83.496094 209.4375 84.304688 208.96875 C 85.117188 208.5 85.894531 207.984375 86.644531 207.425781 C 87.394531 206.867188 88.113281 206.269531 88.792969 205.628906 C 89.476562 204.988281 90.117188 204.3125 90.722656 203.597656 C 91.324219 202.886719 91.886719 202.140625 92.40625 201.359375 C 92.925781 200.582031 93.398438 199.777344 93.824219 198.945312 C 94.25 198.113281 94.628906 197.257812 94.957031 196.382812 C 95.285156 195.507812 95.5625 194.617188 95.789062 193.710938 C 96.015625 192.804688 96.191406 191.886719 96.3125 190.957031 C 96.433594 190.03125 96.503906 189.101562 96.519531 188.164062 C 96.535156 187.230469 96.496094 186.296875 96.402344 185.367188 C 96.3125 184.4375 96.167969 183.515625 95.96875 182.601562 C 95.773438 181.6875 95.523438 180.785156 95.222656 179.898438 C 94.921875 179.015625 94.574219 178.148438 94.175781 177.304688 C 93.773438 176.457031 93.328125 175.636719 92.835938 174.84375 C 92.339844 174.050781 91.804688 173.285156 91.222656 172.550781 C 90.644531 171.820312 90.023438 171.121094 89.363281 170.460938 C 88.214844 169.308594 86.964844 168.28125 85.613281 167.378906 C 84.261719 166.476562 82.832031 165.714844 81.328125 165.097656 C 79.824219 164.480469 78.277344 164.019531 76.679688 163.710938 C 75.085938 163.402344 73.472656 163.253906 71.847656 163.269531 Z M 71.847656 206.257812 C 69.421875 206.28125 67.085938 205.835938 64.839844 204.917969 C 62.589844 204 60.609375 202.683594 58.894531 200.96875 C 58.480469 200.535156 58.085938 200.078125 57.714844 199.609375 C 57.34375 199.136719 56.996094 198.648438 56.671875 198.140625 C 56.34375 197.636719 56.046875 197.117188 55.769531 196.582031 C 55.496094 196.050781 55.246094 195.503906 55.023438 194.945312 C 54.796875 194.386719 54.601562 193.820312 54.433594 193.246094 C 54.265625 192.667969 54.121094 192.085938 54.007812 191.496094 C 53.894531 190.90625 53.808594 190.3125 53.753906 189.714844 C 53.695312 189.117188 53.667969 188.515625 53.667969 187.914062 C 53.667969 187.316406 53.695312 186.714844 53.753906 186.117188 C 53.808594 185.519531 53.894531 184.925781 54.007812 184.335938 C 54.121094 183.746094 54.265625 183.164062 54.433594 182.585938 C 54.601562 182.011719 54.796875 181.441406 55.023438 180.886719 C 55.246094 180.328125 55.496094 179.78125 55.769531 179.246094 C 56.046875 178.714844 56.34375 178.195312 56.671875 177.6875 C 56.996094 177.183594 57.34375 176.695312 57.714844 176.222656 C 58.085938 175.75 58.480469 175.296875 58.894531 174.863281 C 59.320312 174.441406 59.765625 174.042969 60.234375 173.664062 C 60.699219 173.289062 61.183594 172.933594 61.683594 172.605469 C 62.183594 172.273438 62.699219 171.96875 63.226562 171.691406 C 63.757812 171.410156 64.300781 171.15625 64.855469 170.929688 C 65.410156 170.703125 65.972656 170.503906 66.546875 170.328125 C 67.121094 170.15625 67.703125 170.011719 68.292969 169.898438 C 68.878906 169.78125 69.472656 169.695312 70.070312 169.636719 C 70.667969 169.578125 71.265625 169.550781 71.863281 169.550781 C 72.464844 169.550781 73.0625 169.578125 73.65625 169.636719 C 74.253906 169.695312 74.847656 169.78125 75.433594 169.898438 C 76.023438 170.011719 76.605469 170.15625 77.179688 170.328125 C 77.753906 170.503906 78.316406 170.703125 78.871094 170.929688 C 79.425781 171.15625 79.96875 171.410156 80.5 171.691406 C 81.027344 171.96875 81.542969 172.273438 82.042969 172.605469 C 82.542969 172.933594 83.027344 173.289062 83.492188 173.664062 C 83.960938 174.042969 84.40625 174.441406 84.832031 174.863281 C 85.25 175.296875 85.640625 175.75 86.011719 176.222656 C 86.382812 176.695312 86.730469 177.183594 87.058594 177.6875 C 87.382812 178.195312 87.683594 178.714844 87.957031 179.246094 C 88.234375 179.78125 88.480469 180.328125 88.703125 180.886719 C 88.929688 181.441406 89.125 182.011719 89.292969 182.585938 C 89.464844 183.164062 89.605469 183.746094 89.71875 184.335938 C 89.832031 184.925781 89.917969 185.519531 89.972656 186.117188 C 90.03125 186.714844 90.058594 187.316406 90.058594 187.914062 C 90.058594 188.515625 90.03125 189.117188 89.972656 189.714844 C 89.917969 190.3125 89.832031 190.90625 89.71875 191.496094 C 89.605469 192.085938 89.464844 192.667969 89.292969 193.246094 C 89.125 193.820312 88.929688 194.386719 88.703125 194.945312 C 88.480469 195.503906 88.234375 196.050781 87.957031 196.582031 C 87.683594 197.117188 87.382812 197.636719 87.058594 198.140625 C 86.730469 198.648438 86.382812 199.136719 86.011719 199.609375 C 85.640625 200.078125 85.25 200.535156 84.832031 200.96875 C 83.980469 201.820312 83.054688 202.578125 82.050781 203.242188 C 81.046875 203.910156 79.988281 204.46875 78.875 204.921875 C 77.757812 205.378906 76.609375 205.71875 75.429688 205.941406 C 74.246094 206.167969 73.050781 206.273438 71.847656 206.257812 Z M 71.847656 206.257812 " fill-opacity="1" fill-rule="nonzero"/><path fill="#5271ff" d="M 120.191406 176.8125 C 114.777344 176.8125 110.390625 179.042969 107.496094 183.28125 L 107.496094 177.667969 L 101.40625 177.667969 L 101.40625 225.257812 L 107.496094 225.257812 L 107.496094 206.148438 C 110.390625 210.386719 114.777344 212.617188 120.191406 212.617188 C 122.484375 212.621094 124.6875 212.171875 126.800781 211.273438 C 128.910156 210.375 130.761719 209.101562 132.351562 207.445312 C 133.15625 206.59375 133.875 205.671875 134.507812 204.683594 C 135.136719 203.695312 135.671875 202.65625 136.101562 201.566406 C 136.535156 200.476562 136.863281 199.355469 137.085938 198.203125 C 137.304688 197.050781 137.414062 195.886719 137.414062 194.714844 C 137.414062 193.542969 137.304688 192.378906 137.085938 191.226562 C 136.863281 190.074219 136.535156 188.953125 136.101562 187.863281 C 135.671875 186.773438 135.136719 185.734375 134.507812 184.746094 C 133.875 183.757812 133.15625 182.835938 132.351562 181.984375 C 130.761719 180.328125 128.910156 179.054688 126.800781 178.15625 C 124.6875 177.257812 122.484375 176.808594 120.191406 176.8125 Z M 119.40625 182.699219 C 120.195312 182.695312 120.980469 182.765625 121.753906 182.917969 C 122.53125 183.066406 123.285156 183.292969 124.015625 183.589844 C 124.75 183.886719 125.445312 184.253906 126.101562 184.691406 C 126.761719 185.128906 127.371094 185.621094 127.933594 186.179688 C 128.496094 186.734375 128.996094 187.339844 129.441406 187.996094 C 129.882812 188.652344 130.253906 189.34375 130.5625 190.070312 C 130.867188 190.800781 131.097656 191.550781 131.253906 192.328125 C 131.414062 193.101562 131.492188 193.882812 131.496094 194.675781 C 131.5 195.464844 131.425781 196.246094 131.273438 197.023438 C 131.121094 197.796875 130.894531 198.550781 130.59375 199.28125 C 130.296875 200.015625 129.925781 200.707031 129.488281 201.367188 C 129.050781 202.027344 128.554688 202.636719 127.996094 203.195312 C 127.441406 203.753906 126.832031 204.253906 126.175781 204.695312 C 125.519531 205.136719 124.828125 205.507812 124.097656 205.8125 C 123.371094 206.117188 122.617188 206.347656 121.84375 206.503906 C 121.066406 206.65625 120.285156 206.738281 119.496094 206.738281 C 118.703125 206.738281 117.921875 206.664062 117.148438 206.511719 C 116.371094 206.355469 115.617188 206.128906 114.886719 205.828125 C 114.15625 205.527344 113.464844 205.15625 112.804688 204.71875 C 112.148438 204.277344 111.539062 203.78125 110.980469 203.222656 C 110.421875 202.664062 109.921875 202.054688 109.484375 201.398438 C 109.042969 200.742188 108.675781 200.046875 108.371094 199.316406 C 108.070312 198.585938 107.839844 197.835938 107.6875 197.058594 C 107.535156 196.285156 107.457031 195.5 107.457031 194.710938 C 107.433594 193.914062 107.492188 193.125 107.632812 192.34375 C 107.769531 191.558594 107.988281 190.796875 108.28125 190.058594 C 108.578125 189.320312 108.941406 188.617188 109.378906 187.953125 C 109.820312 187.289062 110.320312 186.675781 110.882812 186.113281 C 111.445312 185.550781 112.058594 185.050781 112.722656 184.613281 C 113.390625 184.175781 114.089844 183.8125 114.832031 183.519531 C 115.570312 183.226562 116.332031 183.007812 117.117188 182.871094 C 117.898438 182.734375 118.6875 182.675781 119.484375 182.699219 Z M 119.40625 182.699219 " fill-opacity="1" fill-rule="nonzero"/><path fill="#5271ff" d="M 151.769531 168.179688 L 145.675781 169.996094 L 145.675781 177.667969 L 138.980469 177.667969 L 138.980469 183.554688 L 145.675781 183.554688 L 145.675781 201.800781 C 145.675781 205.535156 146.597656 208.160156 148.5 209.820312 C 150.203125 211.320312 152.679688 212.050781 156.148438 212.050781 C 157.667969 212.039062 159.179688 211.925781 160.683594 211.714844 L 160.769531 211.714844 L 160.769531 206.210938 L 159.984375 206.210938 C 156.421875 206.375 154.0625 206.488281 152.8125 205.292969 C 152.089844 204.601562 151.753906 203.476562 151.753906 201.746094 L 151.753906 183.578125 L 160.753906 183.578125 L 160.753906 177.667969 L 151.769531 177.667969 Z M 151.769531 168.179688 " fill-opacity="1" fill-rule="nonzero"/><path fill="#5271ff" d="M 167.546875 177.691406 L 173.636719 177.691406 L 173.636719 211.746094 L 167.546875 211.746094 Z M 167.546875 177.691406 " fill-opacity="1" fill-rule="nonzero"/><path fill="#5271ff" d="M 170.625 163.605469 C 170.351562 163.59375 170.082031 163.609375 169.808594 163.652344 C 169.539062 163.695312 169.273438 163.765625 169.015625 163.863281 C 168.761719 163.957031 168.515625 164.078125 168.285156 164.226562 C 168.050781 164.371094 167.835938 164.539062 167.636719 164.730469 C 167.441406 164.917969 167.261719 165.125 167.105469 165.351562 C 166.949219 165.578125 166.820312 165.816406 166.710938 166.070312 C 166.601562 166.320312 166.523438 166.582031 166.464844 166.851562 C 166.410156 167.121094 166.382812 167.390625 166.382812 167.664062 C 166.382812 167.941406 166.410156 168.210938 166.464844 168.480469 C 166.523438 168.75 166.601562 169.011719 166.710938 169.261719 C 166.820312 169.515625 166.949219 169.753906 167.105469 169.980469 C 167.261719 170.203125 167.441406 170.414062 167.636719 170.601562 C 167.835938 170.792969 168.050781 170.960938 168.285156 171.105469 C 168.515625 171.25 168.761719 171.375 169.015625 171.46875 C 169.273438 171.566406 169.539062 171.636719 169.808594 171.679688 C 170.082031 171.722656 170.351562 171.738281 170.625 171.726562 C 170.890625 171.726562 171.152344 171.699219 171.410156 171.648438 C 171.671875 171.597656 171.921875 171.519531 172.167969 171.417969 C 172.410156 171.320312 172.644531 171.195312 172.863281 171.046875 C 173.082031 170.902344 173.285156 170.734375 173.472656 170.546875 C 173.660156 170.359375 173.828125 170.15625 173.972656 169.9375 C 174.121094 169.71875 174.242188 169.484375 174.34375 169.242188 C 174.445312 168.996094 174.523438 168.746094 174.574219 168.488281 C 174.625 168.226562 174.652344 167.964844 174.652344 167.703125 C 174.652344 167.433594 174.628906 167.171875 174.578125 166.910156 C 174.527344 166.648438 174.453125 166.394531 174.351562 166.148438 C 174.253906 165.898438 174.128906 165.664062 173.984375 165.441406 C 173.835938 165.21875 173.671875 165.011719 173.484375 164.824219 C 173.296875 164.632812 173.09375 164.464844 172.875 164.3125 C 172.652344 164.164062 172.421875 164.035156 172.175781 163.929688 C 171.929688 163.828125 171.679688 163.746094 171.417969 163.691406 C 171.15625 163.636719 170.894531 163.609375 170.625 163.605469 Z M 170.625 163.605469 " fill-opacity="1" fill-rule="nonzero"/><path fill="#5271ff" d="M 195.601562 205.0625 L 185.042969 177.691406 L 178.464844 177.691406 L 192.054688 211.675781 L 192.078125 211.738281 L 199.121094 211.738281 L 212.691406 177.824219 L 212.746094 177.691406 L 206.164062 177.691406 Z M 195.601562 205.0625 " fill-opacity="1" fill-rule="nonzero"/><path fill="#5271ff" d="M 231.234375 176.8125 C 220.898438 176.8125 213.398438 184.34375 213.398438 194.710938 C 213.347656 197.089844 213.757812 199.386719 214.625 201.601562 C 215.496094 203.820312 216.757812 205.78125 218.414062 207.492188 C 221.753906 210.847656 226.328125 212.617188 231.640625 212.617188 C 238.089844 212.617188 243.433594 209.882812 246.617188 204.921875 L 246.671875 204.835938 L 241.570312 201.941406 L 241.492188 201.886719 L 241.4375 201.972656 C 239.566406 205.039062 235.933594 206.863281 231.777344 206.863281 C 225.425781 206.863281 220.769531 203.285156 219.640625 197.523438 L 247.9375 197.523438 L 247.9375 197.4375 C 248.074219 196.558594 248.140625 195.671875 248.140625 194.78125 C 248.175781 192.472656 247.792969 190.234375 246.996094 188.066406 C 246.199219 185.898438 245.039062 183.945312 243.519531 182.203125 C 242.746094 181.34375 241.890625 180.574219 240.953125 179.898438 C 240.015625 179.21875 239.019531 178.648438 237.957031 178.183594 C 236.898438 177.71875 235.804688 177.371094 234.667969 177.140625 C 233.535156 176.90625 232.390625 176.796875 231.234375 176.8125 Z M 231.234375 182.558594 C 235.714844 182.558594 240.894531 185.089844 242.019531 192.179688 L 219.640625 192.179688 C 220.644531 186.246094 225.078125 182.558594 231.234375 182.558594 Z M 231.234375 182.558594 " fill-opacity="1" fill-rule="nonzero"/><path fill="#5271ff" d="M 270.453125 177.078125 C 265.546875 177.078125 261.9375 179.136719 259.988281 183.039062 L 259.988281 177.667969 L 253.902344 177.667969 L 253.902344 211.714844 L 259.996094 211.714844 L 259.996094 193.632812 C 259.996094 190.316406 260.941406 187.722656 262.800781 185.929688 C 263.851562 185.019531 265.035156 184.347656 266.355469 183.914062 C 267.675781 183.480469 269.027344 183.324219 270.410156 183.4375 L 270.523438 183.4375 L 270.523438 177.070312 Z M 270.453125 177.078125 " fill-opacity="1" fill-rule="nonzero"/><path fill="#5271ff" d="M 326.382812 209.621094 L 305 164.117188 C 304.878906 163.859375 304.695312 163.652344 304.453125 163.5 C 304.214844 163.34375 303.949219 163.269531 303.664062 163.269531 L 299.695312 163.269531 C 299.390625 163.265625 299.117188 163.347656 298.863281 163.515625 C 298.613281 163.683594 298.433594 163.90625 298.316406 164.1875 L 279.84375 209.703125 C 279.800781 209.8125 279.765625 209.929688 279.75 210.050781 C 279.734375 210.171875 279.730469 210.292969 279.742188 210.414062 C 279.757812 210.53125 279.78125 210.652344 279.824219 210.765625 C 279.867188 210.878906 279.921875 210.988281 279.988281 211.085938 C 280.058594 211.1875 280.136719 211.277344 280.226562 211.359375 C 280.316406 211.441406 280.414062 211.507812 280.523438 211.566406 C 280.628906 211.625 280.742188 211.667969 280.859375 211.695312 C 280.980469 211.722656 281.097656 211.738281 281.21875 211.738281 L 325.042969 211.738281 C 325.167969 211.738281 325.292969 211.722656 325.414062 211.691406 C 325.535156 211.660156 325.648438 211.613281 325.757812 211.554688 C 325.867188 211.496094 325.96875 211.421875 326.058594 211.335938 C 326.152344 211.25 326.230469 211.15625 326.296875 211.050781 C 326.363281 210.945312 326.414062 210.832031 326.453125 210.710938 C 326.492188 210.59375 326.515625 210.472656 326.523438 210.347656 C 326.53125 210.222656 326.523438 210.097656 326.496094 209.976562 C 326.472656 209.851562 326.433594 209.734375 326.382812 209.621094 Z M 300.195312 183.289062 L 309.285156 202.683594 C 309.335938 202.792969 309.375 202.910156 309.398438 203.035156 C 309.421875 203.15625 309.429688 203.28125 309.421875 203.402344 C 309.414062 203.527344 309.390625 203.648438 309.351562 203.765625 C 309.3125 203.886719 309.261719 203.996094 309.195312 204.101562 C 309.128906 204.207031 309.050781 204.300781 308.957031 204.386719 C 308.867188 204.472656 308.769531 204.546875 308.660156 204.605469 C 308.550781 204.664062 308.433594 204.710938 308.316406 204.742188 C 308.195312 204.773438 308.070312 204.789062 307.949219 204.789062 L 291.007812 204.789062 C 290.886719 204.789062 290.765625 204.773438 290.648438 204.746094 C 290.53125 204.71875 290.417969 204.675781 290.308594 204.617188 C 290.203125 204.5625 290.105469 204.492188 290.011719 204.410156 C 289.921875 204.328125 289.84375 204.238281 289.777344 204.136719 C 289.707031 204.039062 289.652344 203.929688 289.609375 203.816406 C 289.570312 203.703125 289.542969 203.585938 289.53125 203.464844 C 289.515625 203.34375 289.519531 203.222656 289.535156 203.101562 C 289.554688 202.980469 289.585938 202.863281 289.632812 202.753906 L 297.492188 183.367188 C 297.605469 183.097656 297.78125 182.882812 298.023438 182.71875 C 298.261719 182.554688 298.527344 182.464844 298.820312 182.457031 C 299.109375 182.449219 299.378906 182.519531 299.628906 182.671875 C 299.878906 182.820312 300.066406 183.027344 300.195312 183.289062 Z M 300.195312 183.289062 " fill-opacity="1" fill-rule="nonzero"/></svg>